<?xml version="1.0" standalone="no"?>
<!DOCTYPE svg PUBLIC "-//W3C//DTD SVG 20010904//EN"
 "http://www.w3.org/TR/2001/REC-SVG-20010904/DTD/svg10.dtd">
<svg version="1.0" xmlns="http://www.w3.org/2000/svg"
 width="512.000000pt" height="512.000000pt" viewBox="0 0 512.000000 512.000000"
 preserveAspectRatio="xMidYMid meet">
<metadata>
Created by potrace 1.14, written by Peter Selinger 2001-2017
</metadata>
<g transform="translate(0.000000,512.000000) scale(0.100000,-0.100000)"
fill="#000000" stroke="none">
<path d="M795 3976 c-37 -16 -70 -52 -84 -89 -8 -19 -11 -371 -11 -1119 0
-1084 0 -1092 21 -1134 12 -26 36 -53 57 -66 l37 -23 1745 0 1745 0 38 24 c21
12 47 40 57 62 20 38 20 59 18 1148 -3 1103 -3 1110 -24 1137 -11 15 -33 37
-48 48 l-27 21 -1747 2 c-1441 2 -1752 0 -1777 -11z"/>
<path d="M658 1120 c-59 -31 -73 -57 -149 -274 -52 -148 -59 -198 -31 -232 44
-55 33 -54 669 -54 555 0 590 1 630 19 23 11 48 30 57 43 8 12 29 79 46 147
36 144 49 173 85 189 19 9 194 12 679 12 634 0 654 -1 678 -20 32 -25 42 -49
77 -198 31 -136 49 -165 110 -182 22 -6 242 -10 554 -10 501 0 519 1 558 20
25 13 46 34 57 56 l16 36 -58 173 c-67 196 -93 241 -156 273 l-44 22 -1871 0
c-1830 -1 -1871 -1 -1907 -20z"/>
<path d="M2080 822 c-17 -14 -28 -47 -51 -157 -35 -175 -36 -205 -6 -233 l23
-22 587 0 c586 0 587 0 608 21 20 20 21 29 16 98 -10 130 -43 274 -68 294 -20
16 -61 17 -554 17 -497 0 -534 -1 -555 -18z"/>
<path d="M4 253 c21 -85 29 -106 59 -144 17 -23 57 -56 87 -73 l55 -31 2355 0
2355 0 54 30 c29 16 66 45 82 65 31 36 69 126 69 160 0 20 -23 20 -2561 20
l-2561 0 6 -27z"/>
</g>
</svg>
