<svg width="112" height="126" viewBox="0 0 112 126" fill="none" xmlns="http://www.w3.org/2000/svg">
<path d="M0.76001 0L10.815 112.883L55.933 125.463L101.177 112.837L111.24 0H0.76001ZM90.351 25.862L87.004 63.467L87.014 63.67L87 64.137V64.133L84.622 90.427L84.36 92.763L56 100.607V100.608L55.978 100.627L27.667 92.739L25.75 71H39.633L40.618 82.054L56.004 86.224L56 86.232V86.23L71.443 82.001L73.075 64H40.792L40.515 60.957L39.884 53.828L39.553 50H74.302L75.566 36H22.64L22.363 32.959L21.733 25.828L21.401 22H90.682L90.351 25.862V25.862Z" fill="#1572B6"/>
</svg>
