<svg width="100" height="128" viewBox="0 0 100 128" fill="none" xmlns="http://www.w3.org/2000/svg">
<path d="M45.448 0H66.378V96.88C55.641 98.92 47.758 99.735 39.197 99.735C13.646 99.734 0.327026 88.184 0.327026 66.03C0.327026 44.692 14.462 30.83 36.342 30.83C39.74 30.83 42.322 31.102 45.448 31.917V0ZM45.448 48.765C43.002 47.95 40.963 47.679 38.381 47.679C27.781 47.679 21.664 54.202 21.664 65.618C21.664 76.763 27.509 82.878 38.246 82.878C40.555 82.878 42.458 82.742 45.448 82.336V48.765Z" fill="black"/>
<path d="M99.672 32.321V80.84C99.672 97.557 98.448 105.575 94.779 112.506C91.381 119.167 86.896 123.379 77.655 128L58.22 118.759C67.462 114.409 71.946 110.606 74.8 104.759C77.79 98.78 78.743 91.849 78.743 73.637V32.321H99.672ZM78.742 0.111023H99.672V21.585H78.742V0.111023Z" fill="black"/>
</svg>
