<svg width="103" height="110" viewBox="0 0 103 110" fill="none" xmlns="http://www.w3.org/2000/svg">
<path d="M36.5699 23.66C22.1999 21.04 10.8499 23.78 6.31992 31.66C2.93992 37.51 3.90992 45.27 8.65992 53.56C8.75645 53.7281 8.88513 53.8756 9.03863 53.9939C9.19213 54.1123 9.36744 54.1992 9.55455 54.2498C9.74166 54.3005 9.93691 54.3137 10.1291 54.2889C10.3214 54.264 10.5068 54.2015 10.6749 54.105C10.843 54.0085 10.9905 53.8798 11.1088 53.7263C11.2272 53.5728 11.3141 53.3975 11.3647 53.2104C11.4154 53.0233 11.4286 52.828 11.4038 52.6358C11.3789 52.4436 11.3164 52.2581 11.2199 52.09C6.93992 44.62 6.09993 37.92 8.86993 33.09C12.6299 26.58 22.7599 24.09 36.0399 26.55C36.4245 26.6203 36.8212 26.5349 37.1428 26.3127C37.4645 26.0905 37.6846 25.7496 37.7549 25.365C37.8252 24.9805 37.7398 24.5837 37.5176 24.2621C37.2954 23.9405 36.9545 23.7203 36.5699 23.65V23.66ZM16.1299 63.61C22.5373 70.4768 29.9562 76.3243 38.1299 80.95C58.9699 92.95 81.1299 96.2 92.1299 88.74C92.4522 88.5199 92.6738 88.1808 92.746 87.7973C92.8182 87.4137 92.7351 87.0173 92.5149 86.695C92.2948 86.3728 91.9557 86.1512 91.5722 86.079C91.1886 86.0068 90.7922 86.0899 90.4699 86.31C80.6099 93 59.4999 89.92 39.5699 78.39C31.6718 73.9136 24.5026 68.2586 18.3099 61.62C18.0447 61.3309 17.6755 61.1591 17.2836 61.1422C16.8916 61.1253 16.509 61.2648 16.2199 61.53C15.9308 61.7952 15.7589 62.1644 15.7421 62.5564C15.7252 62.9483 15.8647 63.3309 16.1299 63.62V63.61Z" fill="#47848F"/>
<path d="M88.5601 61.81C97.9701 50.7 101.25 39.52 96.7301 31.7C93.4101 25.94 86.3801 22.9 77.0401 22.78C76.6489 22.78 76.2737 22.9354 75.9971 23.212C75.7205 23.4887 75.5651 23.8638 75.5651 24.255C75.5651 24.6462 75.7205 25.0214 75.9971 25.298C76.2737 25.5746 76.6489 25.73 77.0401 25.73C85.4401 25.84 91.4901 28.46 94.2201 33.18C97.9701 39.68 95.0401 49.65 86.3501 59.92C86.2253 60.0678 86.1309 60.2386 86.0722 60.4229C86.0134 60.6071 85.9916 60.8011 86.0078 60.9938C86.0241 61.1865 86.0781 61.3741 86.1669 61.5458C86.2556 61.7176 86.3773 61.8703 86.5251 61.995C86.6728 62.1198 86.8437 62.2142 87.0279 62.2729C87.2121 62.3317 87.4061 62.3535 87.5988 62.3373C87.7915 62.321 87.9791 62.267 88.1509 62.1782C88.3227 62.0895 88.4753 61.9678 88.6001 61.82L88.5601 61.81ZM64.3901 24.15C55.1571 26.2453 46.3028 29.7533 38.1401 34.55C16.6301 47 2.59007 65.29 4.50007 78.57C4.5283 78.767 4.59506 78.9565 4.69652 79.1277C4.79799 79.2989 4.93218 79.4484 5.09143 79.5677C5.25069 79.687 5.43188 79.7738 5.62468 79.8231C5.81747 79.8724 6.01808 79.8833 6.21507 79.855C6.41205 79.8268 6.60154 79.76 6.77273 79.6586C6.94391 79.5571 7.09343 79.4229 7.21275 79.2637C7.33208 79.1044 7.41886 78.9232 7.46816 78.7304C7.51746 78.5376 7.5283 78.337 7.50007 78.14C5.73007 66.35 19.0301 49 39.6101 37.11C47.506 32.453 56.0736 29.0429 65.0101 27C65.1992 26.9593 65.3784 26.8818 65.5375 26.7718C65.6967 26.6618 65.8326 26.5216 65.9375 26.3591C66.0424 26.1966 66.1143 26.015 66.1491 25.8247C66.1838 25.6344 66.1808 25.4391 66.1401 25.25C66.0994 25.0609 66.0218 24.8817 65.9118 24.7226C65.8018 24.5634 65.6616 24.4275 65.4991 24.3226C65.3366 24.2177 65.155 24.1458 64.9647 24.111C64.7744 24.0763 64.5792 24.0793 64.3901 24.12V24.15Z" fill="#47848F"/>
<path d="M29.5 87.7801C34.5 101.51 42.5 110 51.55 110C58.15 110 64.25 105.5 69.01 97.5801C69.2196 97.2472 69.2883 96.8448 69.2011 96.4613C69.1139 96.0778 68.8779 95.7446 68.545 95.5351C68.2122 95.3256 67.8097 95.2568 67.4262 95.344C67.0427 95.4312 66.7096 95.6672 66.5 96.0001C62.22 103.12 56.97 107 51.56 107C44.04 107 36.87 99.4601 32.32 86.7601C32.1874 86.3928 31.9143 86.0931 31.5608 85.9272C31.2073 85.7612 30.8024 85.7425 30.435 85.8751C30.0677 86.0077 29.7681 86.2808 29.6021 86.6343C29.4362 86.9878 29.4174 87.3928 29.55 87.7601L29.5 87.7801ZM74.5 85.0901C77.1602 76.2366 78.4782 67.0343 78.41 57.7901C78.41 33.3801 69.87 12.3501 57.7 6.94007C57.5228 6.86128 57.3317 6.81818 57.1377 6.81323C56.9438 6.80827 56.7508 6.84157 56.5697 6.91121C56.3886 6.98086 56.2231 7.08549 56.0824 7.21912C55.9418 7.35276 55.8288 7.51279 55.75 7.69007C55.5909 8.04812 55.5805 8.45471 55.7212 8.8204C55.8618 9.1861 56.142 9.48094 56.5 9.64007C67.35 14.4601 75.5 34.4201 75.5 57.7901C75.5665 66.7361 74.2924 75.6416 71.72 84.2101C71.6623 84.3946 71.6414 84.5887 71.6586 84.7812C71.6758 84.9738 71.7308 85.1611 71.8204 85.3324C71.91 85.5038 72.0325 85.6558 72.1809 85.7797C72.3292 85.9037 72.5005 85.9973 72.685 86.0551C72.8695 86.1129 73.0636 86.1337 73.2562 86.1165C73.4488 86.0993 73.6361 86.0443 73.8074 85.9547C73.9787 85.8651 74.1307 85.7426 74.2547 85.5943C74.3787 85.4459 74.4723 85.2746 74.53 85.0901H74.5ZM102.21 83.6501C102.21 82.2557 101.797 80.8927 101.022 79.7333C100.247 78.5739 99.1462 77.6703 97.858 77.1367C96.5697 76.6031 95.1522 76.4635 93.7847 76.7355C92.4171 77.0076 91.1609 77.679 90.1749 78.665C89.189 79.6509 88.5175 80.9071 88.2455 82.2747C87.9735 83.6423 88.1131 85.0598 88.6467 86.348C89.1803 87.6362 90.0839 88.7373 91.2433 89.5119C92.4026 90.2866 93.7657 90.7001 95.16 90.7001C96.0859 90.7001 97.0026 90.5177 97.858 90.1634C98.7133 89.8091 99.4905 89.2898 100.145 88.6352C100.8 87.9805 101.319 87.2033 101.673 86.348C102.028 85.4926 102.21 84.5759 102.21 83.6501ZM99.26 83.6501C99.26 84.461 99.0196 85.2537 98.5691 85.9279C98.1185 86.6022 97.4782 87.1277 96.729 87.438C95.9799 87.7483 95.1555 87.8295 94.3602 87.6713C93.5648 87.5131 92.8343 87.1226 92.2609 86.5492C91.6875 85.9758 91.297 85.2453 91.1388 84.4499C90.9806 83.6546 91.0618 82.8303 91.3721 82.0811C91.6824 81.3319 92.208 80.6916 92.8822 80.2411C93.5564 79.7905 94.3491 79.5501 95.16 79.5501C96.2474 79.5501 97.2903 79.982 98.0592 80.7509C98.8281 81.5198 99.26 82.5627 99.26 83.6501ZM7.84004 90.7001C9.2344 90.7001 10.5974 90.2866 11.7568 89.5119C12.9162 88.7373 13.8198 87.6362 14.3534 86.348C14.887 85.0598 15.0266 83.6423 14.7546 82.2747C14.4825 80.9071 13.8111 79.6509 12.8251 78.665C11.8392 77.679 10.583 77.0076 9.21543 76.7355C7.84786 76.4635 6.43034 76.6031 5.14212 77.1367C3.8539 77.6703 2.75284 78.5739 1.97818 79.7333C1.20351 80.8927 0.790039 82.2557 0.790039 83.6501C0.790039 85.5199 1.53281 87.313 2.85494 88.6352C4.17707 89.9573 5.97026 90.7001 7.84004 90.7001ZM7.84004 87.7501C7.02914 87.7501 6.23644 87.5096 5.5622 87.0591C4.88796 86.6086 4.36245 85.9683 4.05213 85.2191C3.74181 84.4699 3.66062 83.6455 3.81882 82.8502C3.97702 82.0549 4.36751 81.3243 4.9409 80.7509C5.5143 80.1775 6.24485 79.7871 7.04017 79.6289C7.83549 79.4706 8.65986 79.5518 9.40904 79.8622C10.1582 80.1725 10.7986 80.698 11.2491 81.3722C11.6996 82.0465 11.94 82.8392 11.94 83.6501C11.94 84.7375 11.5081 85.7803 10.7392 86.5492C9.97028 87.3181 8.92743 87.7501 7.84004 87.7501Z" fill="#47848F"/>
<path d="M51.55 14.13C52.9444 14.13 54.3074 13.7166 55.4668 12.9419C56.6261 12.1672 57.5298 11.0662 58.0634 9.77795C58.597 8.48973 58.7366 7.07221 58.4645 5.70465C58.1925 4.33708 57.5211 3.08089 56.5351 2.09493C55.5491 1.10897 54.293 0.437522 52.9254 0.165496C51.5578 -0.10653 50.1403 0.0330843 48.8521 0.566682C47.5639 1.10028 46.4628 2.0039 45.6881 3.16326C44.9135 4.32263 44.5 5.68567 44.5 7.08003C44.5 8.94981 45.2428 10.743 46.5649 12.0651C47.887 13.3873 49.6802 14.13 51.55 14.13ZM51.55 11.18C50.7391 11.18 49.9464 10.9396 49.2722 10.4891C48.5979 10.0385 48.0724 9.39821 47.7621 8.64903C47.4518 7.89986 47.3706 7.07548 47.5288 6.28016C47.687 5.48484 48.0775 4.75429 48.6509 4.1809C49.2243 3.6075 49.9548 3.21701 50.7501 3.05881C51.5455 2.90061 52.3698 2.98181 53.119 3.29213C53.8682 3.60245 54.5085 4.12795 54.959 4.8022C55.4095 5.47644 55.65 6.26913 55.65 7.08003C55.65 8.16742 55.218 9.21027 54.4491 9.97917C53.6802 10.7481 52.6374 11.18 51.55 11.18ZM52.63 62.77C51.6444 62.9906 50.6154 62.9135 49.6736 62.5486C48.7318 62.1836 47.9196 61.5473 47.3399 60.7202C46.7603 59.8931 46.4392 58.9125 46.4175 57.9027C46.3958 56.8929 46.6744 55.8994 47.218 55.0482C47.7617 54.1969 48.5458 53.5263 49.471 53.1212C50.3963 52.7161 51.421 52.5949 52.4152 52.7729C53.4094 52.9509 54.3283 53.4202 55.0556 54.1211C55.7828 54.822 56.2855 55.7231 56.5 56.71C56.7861 58.0265 56.5397 59.4027 55.8146 60.5381C55.0895 61.6735 53.9447 62.4759 52.63 62.77Z" fill="#47848F"/>
</svg>
