<svg width="128" height="128" viewBox="0 0 128 128" fill="none" xmlns="http://www.w3.org/2000/svg">
<g clip-path="url(#clip0_249_200)">
<path d="M56.813 127.586C54.91 127.359 52.914 127.066 52.379 126.934C51.5917 126.747 50.7998 126.581 50.004 126.434C49.0952 126.258 48.1935 126.047 47.301 125.801C43.156 124.613 42.859 124.516 39.734 123.238C36.859 122.066 31.562 119.328 29.75 118.082C29.254 117.738 28.79 117.461 28.719 117.461C28.649 117.461 27.489 116.645 26.141 115.648C17.571 109.305 11.137 101.605 6.488 92.121C5.688 90.492 5.035 89.047 5.035 88.911C5.035 88.777 4.891 88.406 4.715 88.094C4.352 87.445 3.835 86.047 3.418 84.602C3.23871 83.9881 3.03014 83.383 2.793 82.789C2.598 82.329 2.441 81.769 2.441 81.543C2.441 81.316 2.246 80.578 2.008 79.898C1.77 79.223 1.578 78.426 1.578 78.128C1.578 77.832 1.391 76.808 1.16 75.852C0.598 73.492 0 67.379 0 63.953C0 60.531 0.598 54.418 1.16 52.059C1.39 51.102 1.578 50.059 1.578 49.739C1.578 49.418 1.723 48.789 1.898 48.339C2.078 47.891 2.308 47.086 2.414 46.551C2.524 46.016 2.774 45.094 2.977 44.496L3.567 42.77C4 41.477 4.402 40.383 4.594 39.957C4.704 39.719 5.133 38.747 5.551 37.797C6.227 36.262 7.676 33.367 8.523 31.852C8.832 31.297 8.949 31.113 10.621 28.5C13.27 24.352 17.797 19.191 22.011 15.512C23.496 14.215 28.457 10.449 28.68 10.449C28.742 10.449 29.21 10.168 29.723 9.82403C31.07 8.92203 32.391 8.15603 34.113 7.29303C34.7311 6.98732 35.3433 6.6696 35.949 6.34003C36.234 6.17603 36.769 5.93003 39.516 4.70003C40.121 4.43003 40.773 4.18403 42.652 3.52703C43.066 3.38303 43.898 3.07803 44.492 2.85503C45.09 2.63303 45.793 2.44903 46.055 2.44903C46.313 2.44903 46.992 2.26903 47.563 2.04703C48.133 1.82403 49.168 1.57003 49.867 1.48403C50.563 1.40203 51.488 1.20703 51.922 1.05403C52.352 0.90603 53.532 0.71403 54.543 0.62903C55.8607 0.509983 57.1748 0.354925 58.484 0.16403C61.172 -0.22997 67.016 -0.22997 69.676 0.16403C70.9324 0.344324 72.1931 0.492706 73.457 0.60903C74.41 0.68803 75.625 0.88703 76.16 1.05103C76.695 1.21103 77.621 1.41103 78.215 1.48403C78.809 1.56303 79.809 1.80903 80.437 2.03503C81.067 2.26503 81.781 2.44903 82.027 2.44903C82.273 2.44903 82.781 2.58603 83.152 2.75803C83.527 2.92603 84.32 3.20703 84.918 3.38303C85.512 3.56303 86.531 3.91803 87.188 4.18003C87.84 4.44103 88.715 4.78503 89.133 4.94103C89.903 5.23103 95.593 8.07803 96.367 8.56303C102.648 12.48 105.879 15.039 110.223 19.527C115.461 24.941 118.938 30.097 122.477 37.687C122.727 38.223 123.109 39.016 123.328 39.445C123.543 39.879 123.723 40.387 123.723 40.575C123.723 40.765 123.903 41.335 124.125 41.844C124.727 43.227 125.242 44.801 125.485 46.004C125.605 46.594 125.828 47.324 125.98 47.625C126.133 47.925 126.312 48.688 126.383 49.313C126.453 49.937 126.66 50.961 126.836 51.582C127.856 55.113 128.363 65.516 127.746 70.117C127.563 71.484 127.356 73.137 127.286 73.789C127.168 74.906 126.578 77.793 126.074 79.734L125.554 81.789C124.574 85.746 122.152 91.383 119.195 96.598C118.023 98.668 114.094 104.266 113.352 104.922C113.285 104.98 112.953 105.372 112.617 105.785C112.281 106.203 111.203 107.371 110.227 108.379C105.926 112.82 102.457 115.566 96.367 119.348C95.645 119.797 89.52 122.789 88.375 123.254C87.781 123.492 86.789 123.894 86.172 124.144C85.559 124.391 84.875 124.598 84.66 124.602C84.445 124.605 83.879 124.797 83.402 125.027C82.926 125.257 82.32 125.449 82.051 125.453C81.785 125.457 81.008 125.645 80.324 125.871C79.641 126.101 78.691 126.348 78.214 126.421C77.738 126.496 76.719 126.699 75.945 126.871C75.172 127.043 72.835 127.379 70.758 127.617C66.1248 128.157 61.4438 128.147 56.813 127.586ZM61.516 115.086C61.816 114.852 62.125 114.386 62.207 114.059C62.387 113.336 91.441 55.089 91.988 54.359C92.449 53.742 92.492 52.754 92.07 52.406C91.848 52.219 89.066 52.16 81.64 52.172C76.07 52.184 71.387 52.188 71.234 52.184C71.008 52.176 70.961 48.454 70.984 32.512C71 21.695 70.949 12.746 70.871 12.622C70.793 12.496 70.488 12.395 70.191 12.395C69.773 12.395 69.578 12.575 69.321 13.203C68.836 14.371 67.496 17.023 60.973 29.688C59.6181 32.3163 58.2664 34.9463 56.918 37.578C55.762 39.84 53.938 43.391 52.871 45.468C49.999 51.0513 47.133 56.6376 44.273 62.227C39.34 71.863 38.743 73.012 38.531 73.266C38.121 73.762 37.898 74.906 38.129 75.336C38.339 75.73 38.758 75.746 49.172 75.73C55.125 75.723 60.035 75.754 60.086 75.8C60.223 75.941 60.172 113.11 60.031 113.996C59.938 114.578 60 114.886 60.266 115.152C60.726 115.613 60.852 115.609 61.516 115.086Z" fill="#049688"/>
</g>
<defs>
<clipPath id="clip0_249_200">
<rect width="128" height="128" fill="white"/>
</clipPath>
</defs>
</svg>
