<svg width="86" height="128" viewBox="0 0 86 128" fill="none" xmlns="http://www.w3.org/2000/svg">
<path d="M21.5 129C33.4 129 43 119.4 43 107.5V86H21.5C9.6 86 0 95.6 0 107.5C0 119.4 9.6 129 21.5 129Z" fill="#0ACF83"/>
<path d="M0 64.5C0 52.6 9.6 43 21.5 43H43V86H21.5C9.6 86 0 76.4 0 64.5Z" fill="#A259FF"/>
<path d="M0 21.5C0 9.6 9.6 0 21.5 0H43V43H21.5C9.6 43 0 33.4 0 21.5Z" fill="#F24E1E"/>
<path d="M43 0H64.5C76.4 0 86 9.6 86 21.5C86 33.4 76.4 43 64.5 43H43V0Z" fill="#FF7262"/>
<path d="M86 64.5C86 76.4 76.4 86 64.5 86C52.6 86 43 76.4 43 64.5C43 52.6 52.6 43 64.5 43C76.4 43 86 52.6 86 64.5Z" fill="#1ABCFE"/>
</svg>
