<svg width="79" height="110" viewBox="0 0 79 110" fill="none" xmlns="http://www.w3.org/2000/svg">
<path d="M2.84996 71.52L13.53 3.07998C13.9 0.749982 17.03 0.189982 18.13 2.27998L29.61 23.76L2.84996 71.52V71.52ZM78.79 88.15L68.6 25.11C68.29 23.15 65.84 22.35 64.43 23.76L0.209961 88.15L35.75 108.1C36.8498 108.705 38.0847 109.022 39.34 109.022C40.5952 109.022 41.8302 108.705 42.93 108.1L78.79 88.15V88.15ZM49.94 33.15L41.71 17.5C40.79 15.72 38.27 15.72 37.35 17.5L1.19996 81.95L49.94 33.15V33.15Z" fill="#F58220"/>
</svg>
