<svg width="126" height="126" viewBox="0 0 126 126" fill="none" xmlns="http://www.w3.org/2000/svg">
<path d="M0.407959 0.407959H125.592V125.593H0.407959V0.407959Z" fill="#F0DB4F"/>
<path d="M115.347 95.736C114.43 90.025 110.706 85.228 99.6751 80.755C95.8431 78.994 91.5711 77.733 90.2981 74.829C89.8461 73.139 89.7861 72.187 90.0721 71.164C90.8931 67.844 94.8561 66.809 97.9971 67.761C100.02 68.439 101.935 69.998 103.09 72.485C108.492 68.987 108.481 69.01 112.253 66.606C110.872 64.465 110.135 63.477 109.231 62.561C105.982 58.932 101.555 57.063 94.4751 57.206L90.7871 57.683C87.2531 58.576 83.8851 60.431 81.9101 62.918C75.9841 69.642 77.6741 81.41 84.8851 86.253C91.9891 91.585 102.425 92.798 103.758 97.784C105.055 103.888 99.2721 105.864 93.5241 105.162C89.2881 104.281 86.9321 102.128 84.3851 98.213C79.6971 100.926 79.6971 100.926 74.8771 103.698C76.0201 106.197 77.2211 107.328 79.1371 109.493C88.2051 118.691 110.897 118.239 114.967 104.317C115.132 103.839 116.228 100.651 115.347 95.736ZM68.4621 57.943H56.7531L56.7051 88.215C56.7051 94.653 57.0381 100.555 55.9911 102.364C54.2781 105.922 49.8391 105.481 47.8161 104.791C45.7571 103.779 44.7101 102.34 43.4971 100.306C43.1641 99.722 42.9141 99.27 42.8301 99.235L33.3101 105.065C34.8931 108.314 37.2251 111.134 40.2121 112.966C44.6741 115.644 50.6711 116.465 56.9431 115.025C61.0251 113.836 64.5471 111.373 66.3911 107.624C69.0571 102.709 68.4851 96.76 68.4611 90.18C68.5211 79.445 68.4621 68.712 68.4621 57.943Z" fill="#323330"/>
</svg>
