<svg width="128" height="128" viewBox="0 0 128 128" fill="none" xmlns="http://www.w3.org/2000/svg">
<path d="M124.129 63.02C124.129 55.328 118.301 48.855 110.477 47.008L128 0.113037H41.16L58.723 47.156C51.145 49.152 45.559 55.512 45.559 63.059C45.559 68.605 48.617 73.523 53.262 76.555C51.43 78.922 49.309 81.105 46.906 83.175C42.383 87.023 37.367 89.98 31.949 91.941C27.059 88.945 24.941 83.656 26.855 78.921C34.312 76.851 39.735 70.527 39.735 63.094C39.735 53.961 31.543 46.562 21.515 46.562C11.449 46.562 3.26205 53.996 3.26205 63.132C3.26205 67.645 5.29705 71.785 8.55905 74.742C8.27305 75.262 7.98905 75.777 7.70305 76.332C4.97305 81.438 1.87505 87.207 0.691045 93.68C-1.67195 106.621 2.19905 117.016 11.531 122.895C16.789 126.188 22.578 127.852 28.813 127.852C39.527 127.852 50.41 122.969 60.922 118.234C68.422 114.871 76.164 111.355 83.785 109.656C86.5981 109.027 89.531 108.656 92.629 108.25C98.902 107.437 105.383 106.586 111.211 103.516C118.016 99.93 122.661 93.937 124.008 87.059C125.023 81.769 124.008 76.445 121.398 71.785C123.181 69.2103 124.133 66.1518 124.128 63.02H124.129ZM116.184 63.02C116.184 68.16 111.578 72.34 105.914 72.34C100.25 72.34 95.644 68.16 95.644 63.02C95.644 61.355 96.133 59.766 96.988 58.398C97.313 57.878 97.723 57.363 98.128 56.918C98.5574 56.4604 99.0359 56.0516 99.555 55.699L99.598 55.66C99.922 55.438 100.289 55.215 100.656 54.996C100.656 54.996 100.696 54.996 100.696 54.957C100.859 54.883 101.023 54.773 101.188 54.699C101.227 54.699 101.266 54.66 101.308 54.66C101.473 54.59 101.676 54.516 101.878 54.441C102.071 54.3737 102.261 54.2997 102.449 54.219C102.489 54.219 102.531 54.179 102.57 54.179C102.734 54.145 102.898 54.07 103.059 54.035C103.102 54.035 103.184 53.996 103.223 53.996C103.426 53.961 103.59 53.922 103.793 53.886H103.836L104.446 53.773C104.488 53.773 104.566 53.773 104.609 53.738C104.773 53.738 104.934 53.699 105.098 53.699H105.301C105.504 53.699 105.711 53.664 105.953 53.664H106.484C106.644 53.664 106.77 53.664 106.93 53.699H107.012C107.34 53.739 107.664 53.773 107.992 53.848C112.637 54.734 116.184 58.508 116.184 63.02ZM52.527 7.50804H116.629L101.918 46.895C101.308 47.008 100.695 47.191 100.086 47.375L84.602 18.715L69.074 47.19C68.461 47.007 67.8091 46.894 67.16 46.784L52.527 7.50804ZM81.664 59.8C80.891 56.323 78.934 53.218 76.164 50.925L84.602 35.468L93.117 51.257C90.59 53.55 88.757 56.472 88.023 59.8H81.664ZM61.25 53.96C61.453 53.92 61.617 53.886 61.82 53.847H61.941C62.105 53.812 62.27 53.812 62.43 53.772H62.594C62.758 53.772 62.879 53.737 63.043 53.737H64.633C64.7931 53.737 64.918 53.772 65.039 53.772C65.121 53.772 65.16 53.772 65.242 53.812C65.406 53.847 65.527 53.847 65.692 53.886C65.73 53.886 65.773 53.886 65.855 53.921C66.0591 53.96 66.262 53.995 66.425 54.034H66.465C66.629 54.069 66.793 54.104 66.953 54.179C66.996 54.179 67.035 54.218 67.117 54.218C67.238 54.253 67.402 54.292 67.523 54.366C67.566 54.366 67.605 54.401 67.648 54.401C67.8081 54.476 67.973 54.515 68.137 54.589H68.176C68.3791 54.659 68.543 54.733 68.707 54.847H68.747C68.91 54.921 69.074 55.03 69.238 55.104C69.278 55.104 69.278 55.144 69.316 55.144C69.48 55.214 69.602 55.327 69.766 55.401L69.809 55.436C70.297 55.769 70.746 56.14 71.191 56.511L71.234 56.546C71.641 56.952 72.047 57.397 72.375 57.878C73.434 59.358 74.047 61.097 74.047 62.983C74.047 68.124 69.441 72.3 63.777 72.3C58.113 72.3 53.507 68.124 53.507 62.983C53.465 58.655 56.766 54.995 61.25 53.96ZM21.148 53.698C26.813 53.698 31.418 57.878 31.418 63.018C31.418 68.159 26.813 72.338 21.148 72.338C15.484 72.338 10.878 68.159 10.878 63.018C10.878 57.878 15.484 53.698 21.148 53.698ZM115.938 85.765C115.043 90.495 111.82 94.64 107.094 97.116C102.652 99.448 97.191 100.186 91.445 100.925C88.309 101.331 85.008 101.776 81.828 102.479C73.3521 104.366 65.203 108.065 57.297 111.612C47.191 116.163 37.652 120.452 28.813 120.452C24.207 120.452 20.09 119.269 16.18 116.792C7.21505 111.171 7.66005 100.632 8.72305 94.862C9.69905 89.46 12.43 84.394 15.039 79.55C15.199 79.253 15.324 78.995 15.484 78.698C16.383 78.995 17.32 79.218 18.297 79.366C16.75 87.206 21.148 95.304 29.707 99.3L31.257 100.038L32.926 99.483C40.059 97.19 46.66 93.456 52.488 88.463C55.789 85.651 58.602 82.62 60.965 79.327C61.902 79.476 62.84 79.515 63.777 79.515C72.254 79.515 79.383 74.225 81.422 67.124H88.266C90.305 74.261 97.437 79.514 105.914 79.514C109.297 79.514 112.434 78.664 115.121 77.222C116.184 79.995 116.508 82.878 115.938 85.765Z" fill="#99425B"/>
</svg>
