<svg width="125" height="66" viewBox="0 0 125 66" fill="none" xmlns="http://www.w3.org/2000/svg">
<path d="M0.501 59.458H4.609V43.235L10.969 57.378C11.719 59.09 12.746 59.695 14.761 59.695C16.776 59.695 17.764 59.09 18.514 57.378L24.874 43.235V59.458H28.982V43.262C28.982 41.682 28.35 40.917 27.046 40.523C23.925 39.549 21.831 40.392 20.883 42.499L14.642 56.457L8.599 42.498C7.69 40.392 5.557 39.549 2.436 40.522C1.132 40.917 0.5 41.681 0.5 43.261V59.458H0.501ZM32.399 46.252H36.506V55.19C36.468 55.675 36.662 56.815 38.912 56.851C40.06 56.869 47.774 56.851 47.846 56.851V46.208H51.963C51.982 46.208 51.959 60.722 51.959 60.782C51.981 64.362 47.518 65.139 45.46 65.199H32.488V62.435C32.51 62.435 45.451 62.438 45.483 62.434C48.128 62.155 47.815 60.841 47.814 60.399V59.321H39.083C35.021 59.284 32.433 57.511 32.4 55.471C32.398 55.284 32.489 46.342 32.399 46.252V46.252Z" fill="#00618A"/>
<path d="M55.13 59.458H66.942C68.325 59.458 69.669 59.169 70.735 58.669C72.512 57.853 73.381 56.747 73.381 55.297V52.295C73.381 51.11 72.394 50.003 70.458 49.267C69.431 48.871 68.166 48.662 66.941 48.662H61.963C60.304 48.662 59.514 48.162 59.317 47.056C59.278 46.924 59.278 46.819 59.278 46.687V44.817C59.278 44.712 59.278 44.606 59.317 44.475C59.514 43.632 59.949 43.395 61.411 43.263L61.806 43.237H73.539V40.499H62.004C60.345 40.499 59.476 40.604 58.686 40.841C56.237 41.605 55.169 42.816 55.169 44.923V47.319C55.169 49.163 57.264 50.743 60.779 51.112C61.175 51.137 61.569 51.165 61.964 51.165H66.231C66.389 51.165 66.547 51.165 66.666 51.19C67.97 51.295 68.522 51.533 68.918 52.006C69.0195 52.0997 69.1 52.2138 69.1543 52.3408C69.2086 52.4678 69.2354 52.6049 69.233 52.743V55.14C69.233 55.429 69.036 55.798 68.641 56.114C68.286 56.43 67.693 56.641 66.903 56.694L66.468 56.72H55.13V59.458ZM99.011 54.692C99.011 57.509 101.105 59.089 105.331 59.406C105.726 59.432 106.121 59.458 106.516 59.458H117.222V56.72H106.438C104.028 56.72 103.12 56.114 103.12 54.665V40.497H99.012V54.692H99.011ZM76.003 54.834V45.069C76.003 42.589 77.745 41.084 81.189 40.609C81.556 40.5564 81.9263 40.53 82.297 40.53H90.096C90.492 40.53 90.848 40.556 91.243 40.609C94.687 41.084 96.43 42.588 96.43 45.069V54.834C96.43 56.848 95.69 57.924 93.985 58.626L98.033 62.279H93.262L89.988 59.323L86.692 59.532H82.297C81.4806 59.5268 80.6686 59.4114 79.883 59.189C77.27 58.477 76.003 57.104 76.003 54.834V54.834ZM80.437 54.597C80.437 54.729 80.476 54.862 80.516 55.02C80.753 56.155 81.823 56.788 83.445 56.788H87.177L83.749 53.693H88.52L91.509 56.393C92.061 56.098 92.423 55.65 92.55 55.073C92.589 54.941 92.589 54.809 92.589 54.677V45.309C92.589 45.204 92.589 45.071 92.55 44.939C92.312 43.883 91.243 43.277 89.66 43.277H83.444C81.624 43.277 80.436 44.069 80.436 45.309V54.597H80.437Z" fill="#E48E00"/>
<path d="M120.836 35.952C118.311 35.883 116.382 36.118 114.732 36.813C114.263 37.011 113.516 37.016 113.44 37.603C113.697 37.874 113.737 38.277 113.942 38.609C114.336 39.246 115.001 40.1 115.594 40.547C116.241 41.036 116.909 41.56 117.605 41.984C118.84 42.738 120.22 43.168 121.411 43.922C122.112 44.368 122.808 44.928 123.493 45.431C123.832 45.678 124.058 46.065 124.499 46.22V46.149C124.268 45.855 124.208 45.451 123.996 45.143L123.062 44.209C122.149 42.997 120.991 41.934 119.758 41.05C118.776 40.345 116.578 39.392 116.168 38.249L116.096 38.178C116.792 38.099 117.608 37.847 118.25 37.675C119.33 37.385 120.295 37.46 121.41 37.172L122.918 36.74V36.454C122.355 35.876 121.952 35.11 121.338 34.587C119.731 33.218 117.975 31.85 116.168 30.708C115.166 30.076 113.927 29.665 112.864 29.129C112.508 28.948 111.88 28.855 111.643 28.554C111.084 27.843 110.781 26.942 110.35 26.113C109.43 24.3221 108.567 22.5018 107.765 20.655C107.221 19.41 106.865 18.182 106.186 17.065C102.925 11.704 99.415 8.46797 93.978 5.28797C92.821 4.61097 91.428 4.34497 89.957 3.99597L87.587 3.85197C87.106 3.65097 86.604 3.06097 86.151 2.77497C84.349 1.63697 79.729 -0.838027 78.395 2.41697C77.553 4.47097 79.655 6.47497 80.406 7.51597C80.933 8.24597 81.609 9.06397 81.986 9.88497C82.234 10.425 82.276 10.966 82.489 11.537C83.01 12.943 83.465 14.474 84.14 15.773C84.481 16.431 84.858 17.124 85.289 17.712C85.553 18.072 86.007 18.232 86.078 18.789C85.635 19.409 85.609 20.373 85.36 21.158C84.238 24.697 84.661 29.096 86.294 31.715C86.795 32.52 87.975 34.244 89.597 33.582C91.016 33.004 90.7 31.213 91.106 29.632C91.198 29.275 91.141 29.011 91.321 28.771V28.843L92.614 31.428C93.571 32.969 95.268 34.578 96.707 35.665C97.453 36.228 98.041 37.203 99.005 37.532V37.459H98.934C98.746 37.168 98.455 37.048 98.215 36.813C97.653 36.262 97.028 35.578 96.564 34.946C95.255 33.17 94.099 31.225 93.045 29.201C92.542 28.235 92.105 27.169 91.681 26.185C91.517 25.806 91.519 25.232 91.179 25.037C90.713 25.757 90.03 26.34 89.67 27.191C89.096 28.551 89.022 30.21 88.809 31.93L88.665 32.001C87.664 31.76 87.313 30.73 86.941 29.847C86.001 27.614 85.826 24.017 86.654 21.446C86.868 20.78 87.835 18.685 87.443 18.07C87.256 17.457 86.639 17.103 86.295 16.633C85.8437 16.0041 85.4586 15.3301 85.146 14.622C84.376 12.881 84.017 10.926 83.208 9.16497C82.82 8.32297 82.166 7.47197 81.628 6.72397C81.033 5.89397 80.366 5.28397 79.904 4.28197C79.74 3.92597 79.517 3.35497 79.76 2.98897C79.837 2.74197 79.948 2.63897 80.192 2.55797C80.608 2.23697 81.768 2.66497 82.202 2.84497C83.354 3.32397 84.315 3.77897 85.291 4.42497C85.759 4.73597 86.232 5.33597 86.799 5.50197H87.445C88.456 5.73397 89.589 5.57297 90.533 5.85997C92.203 6.36797 93.699 7.15697 95.057 8.01497C99.196 10.629 102.579 14.349 104.895 18.787C105.267 19.502 105.429 20.183 105.756 20.941C106.418 22.469 107.252 24.042 107.91 25.537C108.567 27.028 109.208 28.533 110.137 29.774C110.625 30.426 112.511 30.776 113.368 31.138C113.969 31.392 114.953 31.657 115.522 31.999C116.609 32.655 117.663 33.436 118.682 34.154C119.191 34.516 120.758 35.303 120.836 35.952V35.952ZM88.737 8.59297C88.3017 8.58584 87.8672 8.63423 87.444 8.73697V8.80797H87.516C87.767 9.32497 88.21 9.65698 88.521 10.101L89.24 11.609L89.311 11.538C89.756 11.225 89.959 10.724 89.957 9.95797C89.778 9.76997 89.752 9.53497 89.598 9.31197C89.394 9.01197 88.996 8.84397 88.737 8.59297V8.59297Z" fill="#00618A"/>
</svg>
