<svg width="129" height="78" viewBox="0 0 129 78" fill="none" xmlns="http://www.w3.org/2000/svg">
<path d="M30.7 20.9H54.8V22.8H32.9V37.2H53.5V39.1H32.9V54.9H55.1V56.8H30.7V20.9ZM57 20.9H59.6L71 36.7L82.5 20.9L98.3 0.900024L72.3 38.4L85.7 56.8H83L70.9 40L58.7 56.8H56.1L69.6 38.4L57 20.9ZM86.7 22.8V20.9H114.2V22.8H101.5V56.8H99.3V22.8H86.7ZM0.5 20.9H3.2L41.4 77.7L25.6 56.8L2.8 23.6L2.7 56.8H0.5V20.9ZM114 54.3C114.5 54.3 114.8 54 114.8 53.5C114.8 53 114.5 52.7 114 52.7C113.5 52.7 113.2 53 113.2 53.5C113.2 54 113.6 54.3 114 54.3ZM116.2 52.2C116.2 53.5 117.2 54.4 118.6 54.4C120.1 54.4 121 53.5 121 51.9V46.4H119.8V51.9C119.8 52.8 119.4 53.2 118.6 53.2C117.9 53.2 117.4 52.8 117.4 52.1H116.2V52.2ZM122.5 52.1C122.6 53.5 123.7 54.4 125.5 54.4C127.3 54.4 128.5 53.5 128.5 52C128.5 50.8 127.8 50.2 126.3 49.8L125.4 49.6C124.4 49.4 124 49 124 48.5C124 47.8 124.6 47.3 125.6 47.3C126.5 47.3 127.1 47.7 127.2 48.5H128.4C128.3 47.2 127.2 46.3 125.6 46.3C123.9 46.3 122.8 47.2 122.8 48.6C122.8 49.7 123.4 50.4 124.8 50.7L125.8 50.9C126.8 51.1 127.3 51.5 127.3 52.1C127.3 52.8 126.6 53.3 125.6 53.3C124.6 53.3 123.8 52.8 123.7 52.1H122.5Z" fill="black"/>
</svg>
