<svg width="107" height="122" viewBox="0 0 107 122" fill="none" xmlns="http://www.w3.org/2000/svg">
<path d="M102.678 27.334L58.535 1.72902C55.754 0.145016 52.111 0.145016 49.308 1.72902L4.82 27.334C1.951 28.985 0 32.088 0 35.407V86.549C0 89.868 1.992 92.972 4.862 94.632L16.591 101.32C22.218 104.092 23.777 104.092 26.337 104.092C34.671 104.092 38.999 99.053 38.999 90.264V39.774C39 39.061 39.445 38 38.744 38H33.122C32.41 38 31 39.061 31 39.773V90.263C31 94.159 27.384 98.036 20.798 94.743L8.676 87.73C8.254 87.5 8 87.037 8 86.549V35.407C8 34.925 8.463 34.441 8.891 34.194L53.269 8.63302C53.4869 8.51727 53.7298 8.45675 53.9765 8.45675C54.2232 8.45675 54.4661 8.51727 54.684 8.63302L98.647 34.188C99.068 34.441 99.001 34.91 99.001 35.407V86.549C99.001 87.037 99.093 87.512 98.678 87.747L54.545 113.323C54.167 113.55 53.675 113.55 53.26 113.323L41.943 106.574C41.602 106.376 41.191 106.305 40.863 106.488C37.718 108.271 37.134 108.508 34.184 109.531C33.457 109.784 32.385 110.223 34.592 111.46L49.39 120.214C50.8027 121.03 52.4055 121.46 54.037 121.46C55.6749 121.463 57.2845 121.033 58.703 120.214L102.679 94.632C105.55 92.96 107.001 89.868 107.001 86.549V35.407C107 32.088 105.549 28.993 102.678 27.334V27.334ZM67.727 78.445C56 78.445 53.418 75.21 52.557 69.379C52.455 68.751 51.923 68 51.283 68H45.553C44.844 68 44.273 68.86 44.273 69.566C44.273 77.032 48.333 86.078 67.727 86.078C81.765 86.078 89.815 80.623 89.815 70.969C89.815 61.397 83.348 58.885 69.733 57.083C55.971 55.264 54.573 54.345 54.573 51.121C54.573 48.463 55.757 44.918 65.947 44.918C75.051 44.918 78.407 46.872 79.788 53.009C79.907 53.586 80.434 54 81.029 54H86.783C87.137 54 87.474 53.857 87.722 53.604C87.963 53.332 88.089 52.991 88.058 52.625C87.165 42.056 80.145 37.131 65.946 37.131C53.314 37.131 45.78 42.465 45.78 51.406C45.78 61.104 53.277 63.784 65.402 64.983C79.907 66.405 81.035 68.525 81.035 71.378C81.035 76.334 77.057 78.445 67.727 78.445Z" fill="#83CD29"/>
</svg>
