<svg width="120" height="124" viewBox="0 0 120 124" fill="none" xmlns="http://www.w3.org/2000/svg">
<path d="M89.309 90.112C90.094 83.579 89.859 82.62 94.725 83.679L95.96 83.787C99.702 83.957 104.597 83.185 107.473 81.849C113.664 78.976 117.334 74.181 111.231 75.44C97.307 78.313 96.35 73.598 96.35 73.598C111.053 51.783 117.199 24.09 111.893 17.311C97.423 -1.17802 72.376 7.56498 71.957 7.79098L71.823 7.81598C69.072 7.24498 65.993 6.90397 62.534 6.84797C56.233 6.74397 51.452 8.49998 47.825 11.25C47.825 11.25 3.142 -7.15903 5.221 34.401C5.663 43.242 17.893 101.299 32.481 83.763C37.813 77.351 42.965 71.929 42.965 71.929C45.523 73.628 48.587 74.496 51.799 74.184L52.048 73.972C51.97 74.768 52.004 75.547 52.147 76.469C48.39 80.668 49.494 81.405 41.981 82.951C34.379 84.517 38.845 87.306 41.76 88.035C45.295 88.919 53.472 90.171 58.998 82.437L58.778 83.319C60.252 84.499 60.153 91.796 60.361 97.009C60.57 102.223 60.919 107.088 61.982 109.957C63.045 112.825 64.299 120.213 74.173 118.097C82.425 116.333 88.734 113.788 89.309 90.112Z" fill="black"/>
<path d="M70.958 123.256C66.591 123.256 63.747 121.567 62.02 119.936C59.413 117.476 58.379 114.307 57.761 112.414L57.494 111.624C56.25 108.266 55.828 103.431 55.578 97.205C55.54 96.27 55.514 95.307 55.485 94.286C55.464 93.539 55.438 92.602 55.4 91.622C53.8267 92.3722 52.1567 92.8999 50.438 93.19C47.359 93.716 44.049 93.546 40.598 92.683C38.163 92.074 35.633 90.812 34.191 88.863C29.988 92.544 25.979 92.045 23.795 91.316C19.942 90.031 16.494 86.42 13.253 80.279C10.944 75.904 8.71102 70.204 6.61502 63.336C2.96502 51.376 0.646016 38.779 0.440016 34.643C-0.207984 21.698 3.27701 12.44 10.796 7.129C22.657 -1.249 40.628 3.678 47.18 5.915C51.582 3.262 56.761 1.971 62.613 2.064C65.756 2.115 68.749 2.391 71.529 2.887C74.429 1.975 80.157 0.665996 86.714 0.747996C98.795 0.891996 108.806 5.6 115.663 14.363C120.557 20.615 118.137 33.744 116.26 41.014C113.618 51.24 108.989 62.116 103.303 71.584C104.847 71.595 107.084 71.41 110.264 70.753C116.538 69.458 118.373 72.822 118.871 74.328C120.866 80.37 112.194 84.936 109.489 86.192C106.023 87.801 100.372 88.781 95.744 88.569L95.542 88.556L94.326 88.449L94.206 89.463L94.09 90.454C93.779 102.453 92.065 110.052 88.538 115.073C84.841 120.337 79.703 121.812 75.177 122.782C73.633 123.112 72.23 123.256 70.958 123.256ZM61.768 79.585C64.587 81.841 64.834 86.086 65.055 94.019C65.083 95.009 65.109 95.946 65.144 96.821C65.25 99.471 65.499 105.676 66.471 108.298C66.608 108.669 66.731 109.045 66.861 109.444C67.944 112.76 68.487 114.423 73.17 113.422C77.101 112.579 79.122 111.823 80.704 109.571C83.003 106.297 84.289 99.711 84.525 89.996L89.308 90.112L84.558 89.542L84.698 88.356C85.153 84.446 85.481 81.622 88.094 79.754C90.191 78.256 92.58 78.401 94.483 78.744C92.392 77.164 91.814 75.311 91.66 74.551L91.261 72.586L92.382 70.923C98.839 61.343 104.163 49.569 106.991 38.619C109.897 27.368 109.011 21.393 108.125 20.263C96.396 5.276 76.057 11.464 73.933 12.166L73.574 12.36L71.774 12.695L70.852 12.504C68.31 11.976 65.486 11.684 62.459 11.635C57.703 11.555 53.866 12.679 50.72 15.066L48.537 16.721L46.004 15.678C40.592 13.465 24.696 9.016 16.308 14.957C11.652 18.255 9.53102 24.717 10.003 34.164C10.159 37.283 12.278 49.09 15.774 60.541C20.605 76.366 24.995 81.623 26.828 82.234C27.148 82.342 27.978 81.697 28.804 80.705C32.248 76.5764 35.8143 72.5512 39.498 68.635L42.268 65.72L45.617 67.945C46.967 68.842 48.456 69.351 49.985 69.447L57.972 62.635L56.815 74.443C56.789 74.708 56.776 75.069 56.88 75.739L57.228 77.977L55.718 79.665L55.544 79.861L59.932 81.886L61.768 79.585Z" fill="black"/>
<path d="M111.231 75.44C97.306 78.313 96.349 73.598 96.349 73.598C111.052 51.782 117.198 24.088 111.894 17.311C97.424 -1.177 72.375 7.566 71.957 7.793L71.822 7.817C69.071 7.246 65.992 6.906 62.531 6.85C56.23 6.747 51.451 8.502 47.824 11.252C47.824 11.252 3.14 -7.156 5.218 34.403C5.66 43.245 17.89 101.302 32.478 83.766C37.81 77.354 42.961 71.932 42.961 71.932C45.52 73.631 48.583 74.499 51.794 74.187L52.044 73.975C51.966 74.771 52.002 75.55 52.144 76.472C48.386 80.671 49.49 81.408 41.977 82.954C34.375 84.52 38.841 87.309 41.757 88.038C45.291 88.922 53.469 90.174 58.994 82.44L58.773 83.322C60.246 84.502 61.28 90.994 61.107 96.879C60.933 102.764 60.817 106.805 61.978 109.961C63.138 113.117 64.294 120.217 74.17 118.101C82.422 116.333 86.698 111.75 87.294 104.106C87.716 98.671 88.671 99.475 88.732 94.616L89.499 92.316C90.383 84.949 89.639 82.573 94.724 83.678L95.959 83.786C99.701 83.956 104.598 83.184 107.473 81.848C113.663 78.977 117.334 74.181 111.231 75.44Z" fill="#336791"/>
<path d="M71.457 120.307C63.225 120.307 60.617 113.788 59.55 111.122C57.988 107.215 57.651 92.053 57.999 79.619C58.0042 79.4093 58.0508 79.2027 58.1362 79.0111C58.2215 78.8195 58.344 78.6467 58.4964 78.5026C58.6488 78.3585 58.8283 78.2461 59.0244 78.1716C59.2205 78.0972 59.4294 78.0623 59.639 78.069C59.8485 78.0747 60.0547 78.1216 60.246 78.2071C60.4373 78.2926 60.6098 78.4149 60.7538 78.5671C60.8978 78.7194 61.0103 78.8985 61.085 79.0942C61.1597 79.29 61.195 79.4986 61.189 79.708C60.788 94.049 61.357 107.045 62.513 109.937C64.317 114.446 67.053 118.39 74.788 116.733C82.131 115.158 84.881 112.374 86.106 105.273C87.046 99.824 88.905 84.322 89.134 81.263C89.1493 81.0539 89.2057 80.85 89.3 80.6628C89.3943 80.4756 89.5246 80.3088 89.6835 80.1721C89.8424 80.0353 90.0266 79.9313 90.2258 79.8659C90.4249 79.8005 90.635 79.775 90.844 79.791C91.2658 79.8229 91.6577 80.0209 91.9337 80.3415C92.2097 80.6621 92.3472 81.0791 92.316 81.501C92.077 84.686 90.227 100.158 89.251 105.816C87.805 114.203 84.066 118.007 75.457 119.853C73.994 120.166 72.665 120.306 71.457 120.307ZM26.821 88.466C26.1015 88.4635 25.387 88.3453 24.705 88.116C19.358 86.332 14.265 77.624 9.56702 62.231C5.99102 50.514 3.72502 38.284 3.52602 34.309C2.93702 22.525 5.97102 14.188 12.546 9.53097C25.553 0.314975 47.434 9.09097 48.359 9.46897C48.7509 9.62903 49.0631 9.9382 49.227 10.3285C49.3909 10.7187 49.3931 11.1581 49.233 11.55C49.073 11.9418 48.7638 12.2541 48.3735 12.418C47.9833 12.5819 47.5439 12.584 47.152 12.424C46.941 12.338 25.959 3.93197 14.384 12.139C8.76202 16.125 6.18102 23.531 6.71202 34.15C6.87902 37.499 8.99602 49.435 12.618 61.299C16.812 75.041 21.585 83.712 25.714 85.089C26.362 85.305 28.334 85.962 31.153 82.572C34.4405 78.6238 37.8512 74.7799 41.38 71.046C41.6753 70.7515 42.0741 70.5842 42.4912 70.58C42.9082 70.5759 43.3103 70.7351 43.6114 71.0237C43.9125 71.3122 44.0887 71.7072 44.1023 72.124C44.1158 72.5409 43.9657 72.9464 43.684 73.254C43.636 73.304 38.837 78.321 33.607 84.613C31.13 87.592 28.756 88.466 26.821 88.466ZM96.25 75.021C95.9607 75.0206 95.677 74.9416 95.4292 74.7924C95.1813 74.6432 94.9787 74.4295 94.8429 74.1741C94.7071 73.9187 94.6433 73.6311 94.6583 73.3422C94.6733 73.0534 94.7665 72.774 94.928 72.534C109.791 50.479 115.008 23.83 110.54 18.12C104.916 10.934 96.975 7.18097 86.936 6.96397C79.503 6.80397 73.595 8.70197 72.629 9.03297L72.386 9.13197C71.415 9.43697 70.67 8.90497 70.389 8.28297C70.2288 7.92661 70.2045 7.52393 70.3208 7.15089C70.437 6.77786 70.6857 6.46025 71.02 6.25797C71.066 6.23097 71.212 6.16897 71.449 6.08197L71.428 6.08797L71.449 6.08097C73.09 5.47997 79.088 3.68097 86.517 3.76597C97.625 3.88397 106.801 8.16697 113.051 16.154C116.008 19.933 116.015 28.639 113.07 40.041C110.068 51.666 104.419 64.159 97.573 74.318C97.267 74.775 96.763 75.021 96.25 75.021ZM97.01 85.231C94.472 85.231 92.197 84.873 90.835 84.057C89.435 83.218 89.168 82.078 89.133 81.473C88.751 74.763 92.453 73.595 94.341 73.062C94.078 72.664 93.704 72.196 93.317 71.713C92.216 70.337 90.708 68.453 89.546 65.635C89.364 65.195 88.794 64.172 88.134 62.987C84.555 56.569 77.108 43.214 81.892 36.375C84.106 33.21 88.515 31.964 95.011 32.659C93.1 26.837 84 8.62497 62.407 8.27097C55.913 8.16297 50.587 10.16 46.585 14.201C37.625 23.25 37.949 39.623 37.954 39.787C37.9595 39.9964 37.9237 40.2049 37.8487 40.4006C37.7736 40.5962 37.6608 40.7751 37.5166 40.9271C37.3723 41.0791 37.1996 41.2012 37.0082 41.2865C36.8168 41.3717 36.6105 41.4185 36.401 41.424C36.1916 41.4295 35.9831 41.3937 35.7874 41.3186C35.5918 41.2436 35.4129 41.1307 35.2609 40.9865C35.1089 40.8423 34.9868 40.6696 34.9015 40.4782C34.8163 40.2868 34.7695 40.0804 34.764 39.871C34.744 39.144 34.41 21.962 44.318 11.955C48.955 7.27197 55.059 4.95997 62.46 5.08097C76.274 5.30797 85.166 12.331 90.192 18.182C95.671 24.559 98.357 31.593 98.578 33.941C98.743 35.687 97.49 36.036 97.237 36.088L96.661 36.101C90.286 35.08 86.196 35.789 84.505 38.205C80.866 43.406 87.911 56.039 90.919 61.434C91.687 62.81 92.241 63.805 92.495 64.419C93.483 66.815 94.772 68.425 95.807 69.719C96.718 70.857 97.507 71.844 97.789 73.002C97.92 73.232 99.779 75.982 110.81 73.705C113.575 73.135 115.233 73.622 115.74 75.155C116.737 78.17 111.143 81.687 108.046 83.125C105.271 84.415 100.842 85.231 97.01 85.231ZM92.314 81.21C92.664 81.563 94.415 82.172 98.041 82.016C101.265 81.878 104.665 81.177 106.705 80.23C109.314 79.018 111.056 77.663 111.958 76.738L111.458 76.83C104.405 78.286 99.416 78.092 96.63 76.253C96.4429 76.1292 96.2626 75.9954 96.09 75.852C95.788 75.971 95.509 76.049 95.31 76.105C93.73 76.548 92.096 77.007 92.314 81.21ZM46.752 90.125C45 90.125 43.156 89.886 41.273 89.415C39.322 88.927 36.033 87.458 36.083 85.045C36.14 82.338 40.077 81.526 41.559 81.221C46.913 80.118 47.262 79.676 48.935 77.551C49.423 76.932 50.03 76.161 50.858 75.237C52.087 73.861 53.43 73.164 54.85 73.164C55.839 73.164 56.65 73.499 57.186 73.722C58.894 74.43 60.319 76.142 60.905 78.189C61.434 80.036 61.181 81.814 60.195 83.195C56.958 87.728 52.309 90.125 46.752 90.125ZM39.53 85.182C40.011 85.554 40.975 86.051 42.048 86.319C43.679 86.727 45.261 86.934 46.753 86.934C51.299 86.934 54.949 85.052 57.6 81.34C58.153 80.566 57.987 79.583 57.839 79.066C57.529 77.983 56.759 76.998 55.966 76.669C55.536 76.491 55.179 76.355 54.851 76.355C54.675 76.355 54.139 76.355 53.237 77.364C52.6146 78.064 52.0162 78.7851 51.443 79.526C49.359 82.172 48.404 83.07 42.204 84.347C40.691 84.657 39.915 84.973 39.53 85.182ZM51.799 77.822C51.4181 77.8214 51.05 77.6845 50.7611 77.4362C50.4723 77.1879 50.2818 76.8445 50.224 76.468C50.1844 76.2031 50.1577 75.9365 50.144 75.669C46.08 75.593 42.159 73.849 39.182 70.743C35.418 66.816 33.705 61.375 34.483 55.816C35.328 49.779 35.012 44.45 34.842 41.587C34.795 40.791 34.761 40.216 34.763 39.818C34.766 39.313 34.776 37.974 39.252 35.705C40.844 34.898 44.036 33.49 47.523 33.129C53.3 32.532 57.108 35.105 58.248 40.375C61.325 54.603 58.492 60.896 56.423 65.492C56.038 66.348 55.674 67.156 55.383 67.939L55.126 68.629C54.033 71.56 53.088 74.092 53.378 75.983C53.4099 76.1901 53.4006 76.4014 53.3507 76.6049C53.3009 76.8085 53.2114 77.0002 53.0874 77.1691C52.9634 77.338 52.8074 77.4808 52.6282 77.5894C52.449 77.698 52.2501 77.7703 52.043 77.802L51.799 77.822ZM37.964 40.26L38.026 41.399C38.202 44.373 38.53 49.907 37.642 56.259C37.001 60.844 38.401 65.319 41.485 68.535C43.922 71.077 47.129 72.48 50.425 72.48H50.493C50.862 70.925 51.475 69.283 52.135 67.514L52.39 66.828C52.719 65.944 53.104 65.088 53.512 64.182C55.503 59.758 57.982 54.251 55.127 41.05C54.562 38.435 53.191 36.922 50.938 36.423C46.31 35.401 39.413 38.882 37.964 40.26ZM47.594 39.583C47.514 40.147 48.627 41.653 50.079 41.854C51.528 42.057 52.768 40.879 52.847 40.315C52.926 39.751 51.814 39.129 50.362 38.927C48.911 38.725 47.671 39.019 47.594 39.583ZM50.412 42.409L50.005 42.381C49.105 42.256 48.195 41.689 47.572 40.863C47.353 40.573 46.996 40.011 47.067 39.509C47.168 38.773 48.066 38.332 49.467 38.332C49.78 38.332 50.106 38.355 50.434 38.401C51.2 38.507 51.911 38.728 52.436 39.021C53.346 39.529 53.413 40.096 53.372 40.389C53.26 41.202 51.967 42.409 50.412 42.409ZM48.123 39.677C48.168 40.025 49.03 41.173 50.152 41.328L50.413 41.346C51.449 41.346 52.223 40.531 52.314 40.264C52.218 40.082 51.552 39.63 50.289 39.454C50.0171 39.415 49.7427 39.3952 49.468 39.395C48.656 39.395 48.225 39.578 48.123 39.677ZM91.728 38.432C91.807 38.996 90.695 40.502 89.244 40.704C87.794 40.906 86.553 39.729 86.473 39.165C86.397 38.601 87.509 37.978 88.959 37.777C90.409 37.574 91.648 37.869 91.728 38.432ZM88.909 40.992C87.513 40.992 86.308 39.906 86.209 39.201C86.094 38.355 87.487 37.712 88.921 37.513C89.237 37.469 89.55 37.447 89.851 37.447C91.089 37.447 91.909 37.81 91.991 38.396C92.044 38.775 91.753 39.36 91.252 39.888C90.921 40.235 90.226 40.836 89.279 40.967L88.909 40.992ZM89.852 37.979C89.576 37.979 89.288 38 88.996 38.04C87.555 38.241 86.695 38.819 86.737 39.129C86.785 39.47 87.705 40.461 88.91 40.461L89.207 40.44C89.994 40.331 90.585 39.817 90.867 39.521C91.31 39.056 91.486 38.618 91.465 38.469C91.437 38.271 90.905 37.979 89.852 37.979ZM93.817 70.822C93.5279 70.8221 93.2443 70.7437 92.9963 70.595C92.7484 70.4464 92.5456 70.2331 92.4096 69.978C92.2735 69.7229 92.2095 69.4356 92.2242 69.1469C92.2389 68.8582 92.3318 68.5789 92.493 68.339C95.891 63.264 95.269 58.089 94.668 53.084C94.411 50.952 94.147 48.747 94.215 46.631C94.285 44.454 94.562 42.658 94.829 40.921C95.146 38.863 95.446 36.919 95.322 34.611C95.3107 34.4018 95.3408 34.1924 95.4104 33.9948C95.48 33.7972 95.5879 33.6153 95.7278 33.4594C95.8677 33.3035 96.037 33.1766 96.226 33.0861C96.4149 32.9957 96.6198 32.9433 96.829 32.932C97.0382 32.9207 97.2476 32.9507 97.4452 33.0203C97.6428 33.0899 97.8247 33.1978 97.9806 33.3377C98.1365 33.4777 98.2634 33.647 98.3539 33.8359C98.4443 34.0249 98.4967 34.2298 98.508 34.439C98.65 37.077 98.311 39.277 97.983 41.406C97.73 43.049 97.468 44.748 97.405 46.733C97.344 48.607 97.583 50.597 97.836 52.703C98.476 58.025 99.201 64.057 95.145 70.114C94.999 70.3321 94.8014 70.5108 94.5697 70.6343C94.3381 70.7578 94.0795 70.8223 93.817 70.822Z" fill="white"/>
</svg>
