<svg width="104" height="104" viewBox="0 0 104 104" fill="none" xmlns="http://www.w3.org/2000/svg">
<path d="M51.391 0.247988C47.169 0.267988 43.139 0.626988 39.591 1.25499C29.141 3.10099 27.245 6.96499 27.245 14.092V23.503H51.938V26.64H17.977C10.801 26.64 4.51696 30.953 2.55096 39.161C0.282958 48.566 0.182958 54.436 2.55096 64.257C4.30596 71.568 8.49796 76.776 15.675 76.776H24.166V65.494C24.166 57.343 31.217 50.154 39.592 50.154H64.257C71.123 50.154 76.603 44.5 76.603 37.606V14.093C76.603 7.39999 70.957 2.37299 64.257 1.25599C60.013 0.549988 55.612 0.228988 51.391 0.247988ZM38.037 7.81699C40.587 7.81699 42.671 9.93399 42.671 12.538C42.671 15.131 40.588 17.228 38.037 17.228C35.477 17.228 33.404 15.131 33.404 12.538C33.403 9.93399 35.477 7.81699 38.037 7.81699Z" fill="url(#paint0_linear_216_68)"/>
<path d="M79.682 26.64V37.606C79.682 46.106 72.474 53.261 64.256 53.261H39.591C32.835 53.261 27.245 59.044 27.245 65.81V89.325C27.245 96.016 33.063 99.953 39.591 101.872C47.407 104.169 54.903 104.585 64.256 101.872C70.472 100.071 76.602 96.449 76.602 89.325V79.913H51.938V76.775H88.95C96.126 76.775 98.802 71.77 101.298 64.256C103.876 56.521 103.765 49.082 101.298 39.16C99.524 32.015 96.137 26.639 88.95 26.639H79.682V26.64ZM65.809 86.187C68.37 86.187 70.443 88.284 70.443 90.879C70.443 93.481 68.369 95.598 65.809 95.598C63.259 95.598 61.176 93.481 61.176 90.879C61.176 88.284 63.259 86.187 65.809 86.187Z" fill="url(#paint1_linear_216_68)"/>
<defs>
<linearGradient id="paint0_linear_216_68" x1="-1.66317" y1="3.19062" x2="55.2906" y2="51.7605" gradientUnits="userSpaceOnUse">
<stop stop-color="#5A9FD4"/>
<stop offset="1" stop-color="#306998"/>
</linearGradient>
<linearGradient id="paint1_linear_216_68" x1="76.7189" y1="81.9523" x2="56.2943" y2="53.3102" gradientUnits="userSpaceOnUse">
<stop stop-color="#FFD43B"/>
<stop offset="1" stop-color="#FFE873"/>
</linearGradient>
</defs>
</svg>
