<svg width="127" height="112" viewBox="0 0 127 112" fill="none" xmlns="http://www.w3.org/2000/svg">
<path d="M63.5 67.4C69.796 67.4 74.9 62.296 74.9 56C74.9 49.7039 69.796 44.6 63.5 44.6C57.2039 44.6 52.1 49.7039 52.1 56C52.1 62.296 57.2039 67.4 63.5 67.4Z" fill="#61DAFB"/>
<path d="M106.8 37.2C104.6 36.4 102.3 35.6 99.9 34.9C100.5 32.5 101 30.1 101.4 27.8C103.5 14.6 101.2 5.29997 94.8 1.69998C92.9 0.599975 90.8 0.0999756 88.4 0.0999756C81.4 0.0999756 72.5 5.29998 63.5 14C54.5 5.29998 45.6 0.0999756 38.6 0.0999756C36.2 0.0999756 34.1 0.599975 32.2 1.69998C25.8 5.39998 23.5 14.7 25.6 27.8C26 30.1 26.5 32.5 27.1 34.9C24.7 35.6 22.4 36.3 20.2 37.2C7.70003 42 0.900024 48.6 0.900024 56C0.900024 63.4 7.80003 70 20.2 74.8C22.4 75.6 24.7 76.4 27.1 77.1C26.5 79.5 26 81.9 25.6 84.2C23.5 97.4 25.8 106.7 32.2 110.3C34.1 111.4 36.2 111.9 38.6 111.9C45.7 111.9 54.6 106.7 63.5 98C72.5 106.7 81.4 111.9 88.4 111.9C90.8 111.9 92.9 111.4 94.8 110.3C101.2 106.6 103.5 97.3 101.4 84.2C101 81.9 100.5 79.5 99.9 77.1C102.3 76.4 104.6 75.7 106.8 74.8C119.3 70 126.1 63.4 126.1 56C126.1 48.6 119.3 42 106.8 37.2V37.2ZM92 6.69998C96.1 9.09998 97.5 16.5 95.8 27C95.5 29.1 95 31.3 94.4 33.6C89.2 32.4 83.7 31.6 77.9 31.1C74.5 26.3 71 22 67.5 18.1C74.9 10.8 82.4 5.79998 88.5 5.79998C89.8 5.79998 91 6.09997 92 6.69998V6.69998ZM80.8 66C79 69.2 76.9 72.4 74.7 75.6C71 75.9 67.3 76 63.5 76C59.6 76 55.9 75.9 52.3 75.6C50.1 72.4 48.1 69.2 46.3 66C44.4 62.7 42.6 59.3 41 56C42.6 52.7 44.4 49.3 46.3 46C48.1 42.8 50.2 39.6 52.4 36.4C56.1 36.1 59.8 36 63.6 36C67.5 36 71.2 36.1 74.8 36.4C77 39.6 79 42.8 80.8 46C82.7 49.3 84.5 52.7 86.1 56C84.4 59.3 82.7 62.6 80.8 66ZM89.1 62.7C90.6 66.2 91.8 69.6 92.9 73C89.5 73.8 85.9 74.4 82.1 74.9C83.3 73 84.6 71 85.7 68.9C86.9 66.8 88 64.7 89.1 62.7ZM63.5 89.8C61.1 87.2 58.8 84.4 56.6 81.5C58.9 81.6 61.2 81.7 63.5 81.7C65.8 81.7 68.1 81.6 70.4 81.5C68.2 84.4 65.9 87.2 63.5 89.8ZM44.9 74.8C41.1 74.3 37.5 73.7 34.1 72.9C35.2 69.6 36.4 66.1 37.9 62.6C39 64.6 40.1 66.7 41.3 68.7C42.5 70.9 43.7 72.8 44.9 74.8V74.8ZM37.9 49.3C36.4 45.8 35.2 42.4 34.1 39C37.5 38.2 41.1 37.6 44.9 37.1C43.7 39 42.4 41 41.3 43.1C40.1 45.2 39 47.3 37.9 49.3V49.3ZM63.5 22.2C65.9 24.8 68.2 27.6 70.4 30.5C68.1 30.4 65.8 30.3 63.5 30.3C61.2 30.3 58.9 30.4 56.6 30.5C58.8 27.6 61.1 24.8 63.5 22.2ZM85.7 43.2L82.1 37.2C85.9 37.7 89.5 38.3 92.9 39.1C91.8 42.4 90.6 45.9 89.1 49.4C88 47.3 86.9 45.2 85.7 43.2ZM31.2 27C29.5 16.5 30.9 9.09998 35 6.69998C36 6.09997 37.2 5.79998 38.5 5.79998C44.5 5.79998 52 10.7 59.5 18.1C56 21.9 52.5 26.3 49.1 31.1C43.3 31.6 37.8 32.5 32.6 33.6C32 31.3 31.6 29.1 31.2 27V27ZM6.50002 56C6.50002 51.3 12.2 46.3 22.2 42.6C24.2 41.8 26.4 41.1 28.6 40.5C30.2 45.5 32.2 50.8 34.6 56.1C32.2 61.4 30.1 66.6 28.6 71.6C14.8 67.6 6.50002 61.6 6.50002 56ZM35 105.3C30.9 102.9 29.5 95.5 31.2 85C31.5 82.9 32 80.7 32.6 78.4C37.8 79.6 43.3 80.4 49.1 80.9C52.5 85.7 56 90 59.5 93.9C52.1 101.2 44.6 106.2 38.5 106.2C37.2 106.2 36 105.9 35 105.3ZM95.8 85C97.5 95.5 96.1 102.9 92 105.3C91 105.9 89.8 106.2 88.5 106.2C82.5 106.2 75 101.3 67.5 93.9C71 90.1 74.5 85.7 77.9 80.9C83.7 80.4 89.2 79.5 94.4 78.4C95 80.7 95.4 82.9 95.8 85V85ZM104.8 69.4C102.8 70.2 100.6 70.9 98.4 71.5C96.8 66.5 94.8 61.2 92.4 55.9C94.8 50.6 96.9 45.4 98.4 40.4C112.2 44.4 120.5 50.4 120.5 56C120.5 60.7 114.7 65.7 104.8 69.4Z" fill="#61DAFB"/>
</svg>
