<svg width="129" height="122" viewBox="0 0 129 122" fill="none" xmlns="http://www.w3.org/2000/svg">
<path d="M89.1901 85.11C80.1901 103.51 64.4301 115.89 43.5801 119.96C40.3832 120.743 37.1014 121.126 33.8101 121.1C21.8101 121.1 10.8101 116.1 5.47006 107.91C-1.69994 97 -4.13994 73.87 19.5001 56.76C19.9801 59.37 20.9601 62.95 21.6101 65.07C16.9694 68.5177 13.1708 72.9727 10.5001 78.1C6.10006 86.74 6.59006 95.37 11.8001 103.35C15.4001 108.73 21.1001 112 28.4301 113C37.5854 114.159 46.8734 112.41 54.9801 108C67.6901 101.32 76.1601 93.34 81.7001 82.43C80.1335 80.8111 79.2063 78.6797 79.0901 76.43C79.0063 74.0159 79.8838 71.6671 81.5298 69.8992C83.1759 68.1313 85.4561 67.0886 87.8701 67H88.2101C90.558 66.9882 92.8207 67.8795 94.5298 69.4895C96.2389 71.0994 97.2637 73.3048 97.3922 75.6493C97.5207 77.9937 96.7429 80.2979 95.2199 82.0849C93.697 83.872 91.5452 85.0051 89.2101 85.25L89.1901 85.11ZM117.86 64.91C130.07 78.75 130.4 95.04 125.68 104.49C121.28 113.12 109.68 121.76 94.0801 121.76C86.7977 121.611 79.6337 119.889 73.0801 116.71C75.3701 115.08 78.6201 112.47 80.4101 110.84C85.4639 113.029 90.9027 114.192 96.4101 114.26C106.51 114.26 114.16 109.54 118.72 100.91C121.65 95.21 121.82 88.53 119.05 81.69C115.651 73.0838 109.603 65.7818 101.78 60.84C91.5167 53.9214 79.4175 50.2332 67.0401 50.25H64.1101C63.4268 51.8283 62.3153 53.1837 60.9015 54.1628C59.4876 55.1419 57.8278 55.7056 56.1101 55.79H55.8001C53.4242 55.7608 51.1534 54.8065 49.4698 53.1299C47.7862 51.4533 46.8226 49.1864 46.7835 46.8107C46.7445 44.435 47.6331 42.1377 49.2606 40.4067C50.8882 38.6756 53.1265 37.6473 55.5001 37.54H55.8301C57.4841 37.5412 59.1059 37.9983 60.5171 38.8609C61.9284 39.7236 63.0747 40.9585 63.8301 42.43H66.4401C87.2401 42.43 105.5 50.41 117.86 64.91ZM35.1101 87.91C34.9388 86.2494 35.3411 84.5802 36.2501 83.18C27.1301 67.38 22.2501 47.35 29.7401 26.5C35.1101 10.83 48.6301 0.23999 63.2901 0.23999C78.9301 0.23999 95.2201 13.93 97.1701 40.31C94.7301 39.5 91.1701 38.31 89.0301 37.87C88.5001 29.24 81.2101 7.73999 63.9401 8.05999C57.7501 8.22999 48.6301 11.16 43.9401 17.18C38.1387 24.3662 34.7638 33.206 34.3001 42.43C33.2008 55.0777 36.1682 67.7461 42.7701 78.59C43.1345 78.4568 43.523 78.4023 43.9101 78.43H44.2301C46.6488 78.3862 48.9859 79.3051 50.7272 80.9845C52.4685 82.6639 53.4713 84.9662 53.5151 87.385C53.5588 89.8038 52.6399 92.1409 50.9605 93.8821C49.2812 95.6234 46.9788 96.6262 44.5601 96.67H44.2301C41.8704 96.6616 39.6049 95.7429 37.9059 94.1054C36.2069 92.4678 35.2054 90.2378 35.1101 87.88V87.91Z" fill="#764ABC"/>
</svg>
