<svg width="106" height="106" viewBox="0 0 106 106" fill="none" xmlns="http://www.w3.org/2000/svg">
<path fill-rule="evenodd" clip-rule="evenodd" d="M52.271 0.880005C52.082 0.990005 51.289 2.12801 50.508 3.40901C48.548 6.62601 48.526 6.62801 45.893 3.85701C44.18 2.05501 43.766 1.72501 43.214 1.72901C42.855 1.73101 42.402 1.85301 42.206 2.00001C42.011 2.14701 41.458 3.31701 40.978 4.60001C39.879 7.53901 39.826 7.634 39.217 7.751C38.842 7.822 38.12 7.42001 36.389 6.17701C35.111 5.25801 33.857 4.50701 33.603 4.50701C32.549 4.50701 32.252 5.08301 31.75 8.10001C31.112 11.936 31.134 11.923 27.676 10.352C26.28 9.719 24.956 9.20001 24.733 9.20001C24.51 9.20001 24.087 9.44001 23.794 9.73301C23.262 10.266 23.261 10.268 23.406 13.201L23.552 16.137L22.997 16.434C22.505 16.697 22.166 16.665 19.988 16.15C17.145 15.479 16.545 15.497 15.969 16.272L15.548 16.838L16.113 19.259C16.423 20.59 16.722 21.872 16.778 22.107C16.833 22.341 16.738 22.716 16.566 22.939C16.282 23.306 15.98 23.339 13.349 23.299C8.89596 23.229 8.64296 23.611 10.483 27.627C11.068 28.902 11.547 30.06 11.547 30.199C11.547 30.933 10.962 31.2 8.44896 31.61C7.04296 31.839 5.82096 32.027 5.73296 32.027C5.64496 32.027 5.38096 32.219 5.14696 32.453C4.38196 33.218 4.59896 33.936 6.33396 36.385C8.49496 39.435 8.49096 39.446 4.92096 40.812C0.860961 42.365 0.778961 42.748 3.86996 45.68C6.74896 48.41 6.75196 48.37 3.49296 50.419C1.02396 51.97 0.985962 52.007 0.922962 52.848C0.846962 53.871 0.864961 53.889 3.81296 55.69C6.72796 57.47 6.72796 57.524 3.86696 60.231C0.789961 63.141 0.884961 63.566 4.94796 65.099C8.49796 66.438 8.50296 66.454 6.33796 69.504C5.11096 71.233 4.71996 71.953 4.71996 72.487C4.71996 73.486 5.23996 73.741 8.34696 74.263C10.964 74.704 11.547 74.963 11.547 75.685C11.547 75.833 11.067 77.001 10.48 78.279C8.65396 82.256 8.86196 82.587 13.184 82.587C17.209 82.587 17.102 82.464 16.235 86.094C15.581 88.83 15.571 89.354 16.163 89.945C16.616 90.399 17.47 90.348 20.141 89.709C22.181 89.222 22.539 89.188 23.012 89.441L23.552 89.73L23.406 92.665C23.261 95.599 23.262 95.601 23.794 96.134C24.087 96.427 24.516 96.667 24.746 96.667C24.976 96.667 26.3 96.151 27.689 95.52C31.136 93.955 31.114 93.942 31.75 97.766C32.254 100.797 32.548 101.36 33.624 101.36C33.891 101.36 35.118 100.64 36.352 99.76C38.519 98.214 39.081 97.972 39.658 98.339C39.807 98.433 40.385 99.703 40.942 101.161C41.761 103.305 42.061 103.863 42.517 104.081C43.385 104.497 43.922 104.163 45.962 101.941C48.425 99.258 48.526 99.271 50.537 102.53C52.758 106.128 53.333 106.12 55.61 102.457C57.572 99.301 57.549 99.303 60.201 102.073C61.962 103.911 62.337 104.204 62.931 104.204C63.31 104.204 63.763 104.062 63.936 103.888C64.11 103.714 64.686 102.429 65.216 101.033C65.746 99.636 66.295 98.42 66.437 98.33C66.998 97.973 67.579 98.224 69.743 99.76C71.017 100.665 72.216 101.36 72.501 101.36C73.559 101.36 73.941 100.609 74.381 97.657C74.757 95.14 74.833 94.899 75.328 94.648C75.815 94.401 76.107 94.484 78.391 95.521C79.78 96.151 81.104 96.667 81.334 96.667C81.564 96.667 82 96.42 82.301 96.118L82.85 95.57L82.699 92.755C82.555 90.067 82.568 89.923 82.997 89.535C83.438 89.136 83.483 89.138 85.949 89.701C88.935 90.383 89.492 90.401 90.053 89.84C90.601 89.292 90.595 89.172 89.845 86.009C89.004 82.461 88.891 82.587 92.933 82.587C95.688 82.587 95.995 82.548 96.346 82.161C96.932 81.513 96.793 80.771 95.614 78.258C95.019 76.992 94.536 75.84 94.54 75.698C94.56 74.951 95.147 74.696 97.86 74.255C99.52 73.986 100.762 73.674 100.987 73.471C101.741 72.79 101.464 71.904 99.743 69.491C97.586 66.467 97.595 66.438 101.049 65.165C105.185 63.641 105.303 63.133 102.208 60.192C99.341 57.468 99.34 57.483 102.48 55.555C106.276 53.225 106.282 52.7 102.547 50.382C99.335 48.389 99.337 48.417 102.216 45.683C105.304 42.749 105.22 42.365 101.159 40.812C97.575 39.441 97.564 39.407 99.742 36.418C101.039 34.638 101.36 34.047 101.36 33.437C101.36 32.371 100.882 32.132 97.738 31.624C95.111 31.2 94.533 30.942 94.533 30.195C94.533 30.053 95.013 28.91 95.6 27.653C96.749 25.192 96.91 24.207 96.26 23.618C95.911 23.302 95.443 23.257 92.939 23.298C90.319 23.342 89.984 23.305 89.621 22.94C89.224 22.541 89.228 22.485 89.848 19.898C90.608 16.728 90.611 16.651 89.986 16.064C89.352 15.468 88.956 15.478 86.045 16.163C83.924 16.663 83.573 16.696 83.091 16.438L82.544 16.145L82.695 13.219L82.847 10.294L82.3 9.74701C81.999 9.44601 81.572 9.20001 81.35 9.20001C81.129 9.20001 79.812 9.72301 78.424 10.361C76.106 11.428 75.857 11.499 75.356 11.237C74.856 10.975 74.773 10.717 74.346 8.11001C73.853 5.09401 73.548 4.50701 72.477 4.50701C72.223 4.50701 70.964 5.262 69.679 6.185C67.569 7.701 67.286 7.844 66.76 7.661C66.325 7.509 66.072 7.178 65.763 6.355C65.534 5.749 65.096 4.58101 64.788 3.76001C64.166 2.10401 63.819 1.73301 62.887 1.73301C62.367 1.73301 61.896 2.107 60.208 3.86C57.555 6.616 57.545 6.61501 55.594 3.41501C54.814 2.13601 53.999 0.994006 53.782 0.878006C53.294 0.616006 52.72 0.617005 52.271 0.880005ZM54.689 10.515C57 12.16 55.771 16.027 52.937 16.027C50.187 16.027 48.802 12.714 50.766 10.833C51.874 9.77101 53.463 9.642 54.689 10.515ZM51.783 20.729C53.298 21.305 53.92 20.959 57.379 17.625L59.978 15.119L61.078 15.265C64.528 15.723 71.39 18.737 75.333 21.526C78.956 24.09 83.771 29.312 85.823 32.903L86.262 33.672L84.318 38.052C83.248 40.461 82.373 42.685 82.373 42.996C82.373 43.713 82.843 44.847 83.296 45.222C83.487 45.381 85.302 46.255 87.329 47.164L91.013 48.818L91.158 49.755C91.345 50.976 91.37 53.975 91.2 54.827L91.067 55.493H88.964C86.525 55.493 86.713 55.275 86.581 58.267C86.485 60.436 85.961 61.635 84.769 62.411C82.827 63.678 79.62 63.448 78.26 61.945C78.051 61.714 77.645 60.553 77.357 59.364C76.516 55.891 75.386 53.941 73.116 52.044C72.399 51.445 71.813 50.886 71.813 50.801C71.813 50.717 72.601 50.053 73.565 49.328C77.075 46.682 79.093 43.602 79.315 40.551C79.738 34.732 75.102 29.308 68.206 27.55C66.571 27.133 65.873 27.12 45.646 27.12C34.166 27.12 24.773 27.045 24.773 26.954C24.773 26.739 27.324 24.263 28.827 23.021C32.954 19.609 38.315 16.924 43.867 15.49L45.787 14.993L48.515 17.759C50.016 19.28 51.487 20.616 51.783 20.729ZM17.432 38.526C18.689 39.349 19.204 41.417 18.462 42.66C17.314 44.584 14.406 44.665 13.257 42.805C11.586 40.103 14.804 36.804 17.432 38.526ZM91.482 38.631C94.77 40.636 92.222 45.568 88.702 44.011C86.352 42.971 86.277 39.759 88.575 38.587C89.534 38.098 90.636 38.115 91.482 38.631ZM27.12 50.907V63.173H16.276L15.846 61.307C15 57.632 14.644 53.83 14.857 50.716L15.006 48.528L18.734 46.856C21.073 45.808 22.577 45.009 22.771 44.712C23.619 43.419 23.538 42.495 22.348 39.867L21.792 38.64H27.12V50.907ZM58.34 39.174C60.662 39.778 61.889 41.007 61.892 42.73C61.894 43.995 61.267 44.789 59.712 45.491C58.611 45.989 58.436 46.001 51.493 46.069L44.4 46.137V38.853H50.755C55.719 38.853 57.38 38.923 58.34 39.174ZM55.944 56.776C57.095 57.096 58.456 58.096 59.154 59.135C59.887 60.227 60.316 61.647 61.332 66.351C62.19 70.327 62.742 71.627 64.288 73.319C66.203 75.414 65.759 75.333 75.325 75.333C79.906 75.333 83.653 75.406 83.653 75.496C83.653 75.657 80.498 79.387 80.362 79.387C80.323 79.387 78.675 79.042 76.7 78.62C71.123 77.429 70.922 77.569 69.642 83.546L68.819 87.386L68.076 87.752C66.836 88.364 62.806 89.624 60.717 90.054C57.265 90.764 53.508 91.004 50.206 90.725C44.577 90.248 37.123 88.064 36.832 86.805C36.77 86.538 36.395 84.81 36 82.964C35.604 81.118 35.123 79.367 34.931 79.073C34.008 77.665 33.037 77.578 28.767 78.523C27.15 78.881 25.739 79.173 25.631 79.173C25.428 79.173 22.427 75.703 22.427 75.469C22.427 75.396 29.555 75.311 38.267 75.281L54.107 75.227L54.164 69.6C54.204 65.627 54.149 63.886 53.977 63.68C53.785 63.448 52.763 63.387 49.067 63.387H44.4V56.56L49.787 56.561C52.749 56.562 55.52 56.659 55.944 56.776ZM31.536 82.365C34.055 83.9 32.847 87.922 29.868 87.919C26.813 87.917 25.681 83.932 28.284 82.344C29.145 81.819 30.658 81.829 31.536 82.365ZM77.662 82.533C78.897 83.438 79.308 85.321 78.543 86.575C76.534 89.87 71.51 87.251 73.188 83.784C74.013 82.081 76.206 81.467 77.662 82.533Z" fill="black"/>
</svg>
