<svg width="128" height="78" viewBox="0 0 128 78" fill="none" xmlns="http://www.w3.org/2000/svg">
<path d="M64.0039 0.60199C46.9369 0.60199 36.2739 9.13199 32.0039 26.199C38.4019 17.668 45.8709 14.469 54.4019 16.602C59.2729 17.816 62.7539 21.348 66.6089 25.262C72.8829 31.629 80.1449 39 96.0039 39C113.07 39 123.734 30.469 128.004 13.398C121.605 21.934 114.137 25.133 105.605 23C100.735 21.785 97.2579 18.254 93.3979 14.34C87.1279 7.97299 79.8679 0.60199 64.0039 0.60199V0.60199ZM32.0039 39C14.9379 39 4.27391 47.531 0.00390625 64.602C6.40191 56.066 13.8699 52.867 22.4019 55C27.2729 56.215 30.7539 59.746 34.6089 63.66C40.8829 70.027 48.1449 77.398 64.0039 77.398C81.0699 77.398 91.7339 68.868 96.0039 51.801C89.6049 60.332 82.1369 63.531 73.6049 61.398C68.7349 60.184 65.2579 56.652 61.3979 52.738C55.1279 46.371 47.8679 39 32.0039 39Z" fill="#38B2AC"/>
</svg>
